<svg width="413" height="55" viewBox="0 0 413 55" fill="none" xmlns="http://www.w3.org/2000/svg">
<path d="M63.6999 53.55L50.3499 1.05H60.5499L71.6499 47.175H72.6999L83.7999 1.05H93.9999L80.6499 53.55H63.6999Z" fill="white"/>
<path d="M100.312 53.55V1.05H110.212V53.55H100.312Z" fill="white"/>
<path d="M120.088 53.55V1.05H138.913L149.338 46.8H150.688V1.05H160.438V53.55H141.613L131.188 7.8H129.838V53.55H120.088Z" fill="white"/>
<path d="M170.332 53.55V1.05H180.232V53.55H170.332Z" fill="white"/>
<path d="M190.107 53.55V1.05H208.482L217.557 46.8H218.907L227.982 1.05H246.357V53.55H236.757V8.325H235.407L226.407 53.55H210.057L201.057 8.325H199.707V53.55H190.107Z" fill="white"/>
<path d="M276.495 54.6C272.195 54.6 268.495 53.825 265.395 52.275C262.345 50.675 259.995 48.425 258.345 45.525C256.745 42.575 255.945 39.1 255.945 35.1V1.05H265.845V35.4C265.845 38.6 266.745 41.125 268.545 42.975C270.395 44.825 273.045 45.75 276.495 45.75C279.945 45.75 282.57 44.825 284.37 42.975C286.22 41.125 287.145 38.6 287.145 35.4V1.05H297.045V35.1C297.045 39.1 296.22 42.575 294.57 45.525C292.97 48.425 290.62 50.675 287.52 52.275C284.47 53.825 280.795 54.6 276.495 54.6Z" fill="white"/>
<path d="M324.861 54.6C320.811 54.6 317.236 53.875 314.136 52.425C311.036 50.975 308.611 48.9 306.861 46.2C305.111 43.5 304.236 40.25 304.236 36.45V34.35H313.986V36.45C313.986 39.6 314.961 41.975 316.911 43.575C318.861 45.125 321.511 45.9 324.861 45.9C328.261 45.9 330.786 45.225 332.436 43.875C334.136 42.525 334.986 40.8 334.986 38.7C334.986 37.25 334.561 36.075 333.711 35.175C332.911 34.275 331.711 33.55 330.111 33C328.561 32.4 326.661 31.85 324.411 31.35L322.686 30.975C319.086 30.175 315.986 29.175 313.386 27.975C310.836 26.725 308.861 25.1 307.461 23.1C306.111 21.1 305.436 18.5 305.436 15.3C305.436 12.1 306.186 9.375 307.686 7.125C309.236 4.825 311.386 3.075 314.136 1.875C316.936 0.625001 320.211 0 323.961 0C327.711 0 331.036 0.650001 333.936 1.95C336.886 3.2 339.186 5.1 340.836 7.65C342.536 10.15 343.386 13.3 343.386 17.1V19.35H333.636V17.1C333.636 15.1 333.236 13.5 332.436 12.3C331.686 11.05 330.586 10.15 329.136 9.6C327.686 9 325.961 8.7 323.961 8.7C320.961 8.7 318.736 9.275 317.286 10.425C315.886 11.525 315.186 13.05 315.186 15C315.186 16.3 315.511 17.4 316.161 18.3C316.861 19.2 317.886 19.95 319.236 20.55C320.586 21.15 322.311 21.675 324.411 22.125L326.136 22.5C329.886 23.3 333.136 24.325 335.886 25.575C338.686 26.825 340.861 28.475 342.411 30.525C343.961 32.575 344.736 35.2 344.736 38.4C344.736 41.6 343.911 44.425 342.261 46.875C340.661 49.275 338.361 51.175 335.361 52.575C332.411 53.925 328.911 54.6 324.861 54.6Z" fill="white"/>
<path d="M352.119 53.55V1.05H362.019V53.55H352.119Z" fill="white"/>
<path d="M391.844 54.6C385.344 54.6 380.194 52.8 376.394 49.2C372.594 45.55 370.694 40.35 370.694 33.6V21C370.694 14.25 372.594 9.075 376.394 5.475C380.194 1.825 385.344 0 391.844 0C398.294 0 403.269 1.775 406.769 5.325C410.319 8.825 412.094 13.65 412.094 19.8V20.25H402.344V19.5C402.344 16.4 401.469 13.85 399.719 11.85C398.019 9.85 395.394 8.85 391.844 8.85C388.344 8.85 385.594 9.925 383.594 12.075C381.594 14.225 380.594 17.15 380.594 20.85V33.75C380.594 37.4 381.594 40.325 383.594 42.525C385.594 44.675 388.344 45.75 391.844 45.75C395.394 45.75 398.019 44.75 399.719 42.75C401.469 40.7 402.344 38.15 402.344 35.1V33.75H412.094V34.8C412.094 40.95 410.319 45.8 406.769 49.35C403.269 52.85 398.294 54.6 391.844 54.6Z" fill="white"/>
<path d="M40.1504 1.05L41.6758 7.05L51.8789 47.175L53.5 53.55H13.3506L0 1.05H40.1504Z" fill="white"/>
</svg>
